<?xml version="1.0" encoding="UTF-8"?>
<svg width="259px" height="181px" viewBox="0 0 259 181" version="1.1" xmlns="http://www.w3.org/2000/svg" xmlns:xlink="http://www.w3.org/1999/xlink">
    <!-- Generator: Sketch 45 (43475) - http://www.bohemiancoding.com/sketch -->
    <title>Portfolio Landing Page Copy 8</title>
    <desc>Created with Sketch.</desc>
    <defs>
        <radialGradient cx="38.086614%" cy="-63.6976431%" fx="38.086614%" fy="-63.6976431%" r="94.0479461%" gradientTransform="translate(0.380866,-0.636976),scale(0.486794,1.000000),rotate(90.000000),scale(1.000000,1.536261),translate(-0.380866,0.636976)" id="radialGradient-1">
            <stop stop-color="#FFFFFF" offset="0%"></stop>
            <stop stop-color="#53CFDD" offset="100%"></stop>
        </radialGradient>
        <linearGradient x1="50%" y1="0%" x2="50%" y2="265.452846%" id="linearGradient-2">
            <stop stop-color="#FFFFFF" offset="0%"></stop>
            <stop stop-color="#FFFFFF" offset="100%"></stop>
        </linearGradient>
        <radialGradient cx="38.086614%" cy="-63.6976431%" fx="38.086614%" fy="-63.6976431%" r="94.0479461%" gradientTransform="translate(0.380866,-0.636976),scale(0.506800,1.000000),rotate(90.000000),scale(1.000000,1.536261),translate(-0.380866,0.636976)" id="radialGradient-3">
            <stop stop-color="#FFFFFF" offset="0%"></stop>
            <stop stop-color="#53CFDD" offset="100%"></stop>
        </radialGradient>
        <filter x="-7.0%" y="-5.4%" width="113.2%" height="113.4%" filterUnits="objectBoundingBox" id="filter-4">
            <feOffset dx="0" dy="2" in="SourceAlpha" result="shadowOffsetOuter1"></feOffset>
            <feGaussianBlur stdDeviation="2" in="shadowOffsetOuter1" result="shadowBlurOuter1"></feGaussianBlur>
            <feColorMatrix values="0 0 0 0 0.727200255   0 0 0 0 0.684978223   0 0 0 0 0.684978223  0 0 0 0.5 0" type="matrix" in="shadowBlurOuter1" result="shadowMatrixOuter1"></feColorMatrix>
            <feMerge>
                <feMergeNode in="shadowMatrixOuter1"></feMergeNode>
                <feMergeNode in="SourceGraphic"></feMergeNode>
            </feMerge>
        </filter>
        <filter x="-9.0%" y="-8.2%" width="117.0%" height="121.2%" filterUnits="objectBoundingBox" id="filter-5">
            <feOffset dx="0" dy="2" in="SourceAlpha" result="shadowOffsetOuter1"></feOffset>
            <feGaussianBlur stdDeviation="2" in="shadowOffsetOuter1" result="shadowBlurOuter1"></feGaussianBlur>
            <feColorMatrix values="0 0 0 0 0.727200255   0 0 0 0 0.684978223   0 0 0 0 0.684978223  0 0 0 0.5 0" type="matrix" in="shadowBlurOuter1" result="shadowMatrixOuter1"></feColorMatrix>
            <feMerge>
                <feMergeNode in="shadowMatrixOuter1"></feMergeNode>
                <feMergeNode in="SourceGraphic"></feMergeNode>
            </feMerge>
        </filter>
        <filter x="-12.0%" y="-10.9%" width="122.7%" height="128.1%" filterUnits="objectBoundingBox" id="filter-6">
            <feOffset dx="0" dy="2" in="SourceAlpha" result="shadowOffsetOuter1"></feOffset>
            <feGaussianBlur stdDeviation="2" in="shadowOffsetOuter1" result="shadowBlurOuter1"></feGaussianBlur>
            <feColorMatrix values="0 0 0 0 0.727200255   0 0 0 0 0.684978223   0 0 0 0 0.684978223  0 0 0 0.5 0" type="matrix" in="shadowBlurOuter1" result="shadowMatrixOuter1"></feColorMatrix>
            <feMerge>
                <feMergeNode in="shadowMatrixOuter1"></feMergeNode>
                <feMergeNode in="SourceGraphic"></feMergeNode>
            </feMerge>
        </filter>
        <filter x="-17.2%" y="-14.3%" width="131.0%" height="138.8%" filterUnits="objectBoundingBox" id="filter-7">
            <feOffset dx="0" dy="2" in="SourceAlpha" result="shadowOffsetOuter1"></feOffset>
            <feGaussianBlur stdDeviation="2" in="shadowOffsetOuter1" result="shadowBlurOuter1"></feGaussianBlur>
            <feColorMatrix values="0 0 0 0 0.727200255   0 0 0 0 0.684978223   0 0 0 0 0.684978223  0 0 0 0.5 0" type="matrix" in="shadowBlurOuter1" result="shadowMatrixOuter1"></feColorMatrix>
            <feMerge>
                <feMergeNode in="shadowMatrixOuter1"></feMergeNode>
                <feMergeNode in="SourceGraphic"></feMergeNode>
            </feMerge>
        </filter>
    </defs>
    <g id="Page-1" stroke="none" stroke-width="1" fill="none" fill-rule="evenodd">
        <g id="Portfolio-Landing-Page-Copy-8">
            <ellipse id="Oval" fill="#53CFDD" cx="131.733376" cy="100.005449" rx="122.733376" ry="62.3003043"></ellipse>
            <ellipse id="Oval-Copy" stroke="url(#linearGradient-2)" fill="url(#radialGradient-1)" cx="131.733376" cy="88.932381" rx="122.733376" ry="59.7458448"></ellipse>
            <path d="M135.431132,131.402658 C203.214904,131.402658 258.164508,93.38942 258.164508,62.6530753 C258.164508,31.9167305 203.214904,7 135.431132,7 C67.6473601,7 12.697756,31.9167305 12.697756,62.6530753 C12.697756,93.38942 67.6473601,131.402658 135.431132,131.402658 Z" id="Oval-Copy-2" stroke="url(#linearGradient-2)" fill="url(#radialGradient-3)"></path>
            <g id="Group-Copy-11" filter="url(#filter-4)" transform="translate(123.120507, 7.000000)" fill-rule="nonzero">
                <g id="Etherium-Copy-2" opacity="0.423686594" transform="translate(0.507478, 0.552820)">
                    <g id="Group-Copy-2" transform="translate(0.717739, 0.767629)">
                        <path d="M31.0547274,107.599482 C30.8966555,107.599482 30.8966555,107.599482 30.7385835,107.430422 C27.577144,102.696758 24.5737766,98.1321524 21.4123371,93.3984876 C18.2508977,88.6648229 15.0894582,83.9311582 11.9280188,79.1974934 C8.92465128,74.6328882 5.76321183,70.0682829 2.75984435,65.3346182 C1.96948449,64.151202 1.17912463,62.9677858 0.388764767,61.7843696 C0.388764767,61.6153102 0.230692795,61.6153102 0.230692795,61.4462507 C0.388764767,61.4462507 0.388764767,61.6153102 0.54683674,61.6153102 C4.81478,64.3202614 9.24079523,67.0252127 13.5087385,69.730164 C18.4089696,72.9422936 23.4672728,75.9853638 28.3675039,79.1974934 C29.1578638,79.7046718 30.1062956,80.2118502 30.8966555,80.7190285 C31.0547274,80.7190285 31.0547274,80.888088 31.0547274,81.0571474 C31.0547274,81.2262069 31.0547274,81.3952663 31.0547274,81.5643258 C31.0547274,90.0172985 31.0547274,98.3012118 31.0547274,106.754185 C31.0547274,106.923244 31.0547274,107.261363 31.0547274,107.599482 Z" id="Shape" stroke="#FFFFFF"></path>
                        <path d="M0.230692795,55.0219914 C0.230692795,55.0219914 0.388764767,55.0219914 0.230692795,55.0219914 C0.388764767,55.0219914 0.388764767,55.0219914 0.230692795,55.0219914 C0.230692795,55.1910509 0.230692795,55.1910509 0.230692795,55.0219914 C0.230692795,55.0219914 0.230692795,55.0219914 0.230692795,55.0219914 C0.230692795,55.0219914 0.230692795,55.0219914 0.230692795,55.0219914 Z" id="Shape" fill="#808080"></path>
                        <path d="M61.5626181,61.4462507 C61.5626181,61.4462507 61.5626181,61.4462507 61.5626181,61.4462507 C61.5626181,61.6153102 61.5626181,61.6153102 61.4045462,61.7843696 C52.2363717,75.6472449 43.0681973,89.3410607 33.9000229,103.203936 C32.9515911,104.725471 32.0031593,106.077947 31.0547274,107.599482 C31.0547274,107.599482 31.0547274,107.599482 31.0547274,107.430422 C31.0547274,107.261363 31.0547274,107.261363 31.0547274,107.092303 C31.0547274,98.4702713 31.0547274,89.8482391 31.0547274,81.2262069 C31.0547274,81.0571474 31.0547274,80.888088 31.0547274,80.7190285 C33.1096631,79.3665529 35.1645987,78.0140773 37.2195344,76.8306611 C45.281205,71.7588774 53.3428756,66.6870938 61.4045462,61.6153102 C61.4045462,61.4462507 61.5626181,61.4462507 61.5626181,61.4462507 Z" id="Shape" stroke="#FFFFFF"></path>
                    </g>
                </g>
                <g id="Etherium-Copy" transform="translate(1.817677, 2.295455)">
                    <g id="Group" transform="translate(-0.000000, -0.000000)">
                        <path d="M30.4376338,1.55323447 C30.4376338,13.8206537 30.4376338,26.2538488 30.4376338,38.521268 C30.4376338,38.687044 30.4376338,39.0185958 30.4376338,39.1843718 C30.4376338,39.3501477 30.282632,39.5159237 30.1276301,39.5159237 C29.0426171,40.0132515 28.112606,40.5105793 27.027593,41.0079071 C25.6325763,41.6710108 24.0825578,42.3341146 22.6875411,43.1629942 C20.9825207,43.9918739 19.2775003,44.8207536 17.5724799,45.6496333 C16.1774632,46.312737 14.7824465,46.9758407 13.3874298,47.6389445 C11.6824094,48.4678242 9.97738896,49.2967038 8.27236855,50.1255835 C6.87735186,50.7886873 5.48233516,51.451791 3.93231661,52.2806707 C2.84730363,52.7779985 1.60728878,53.4411022 0.5222758,53.93843 C0.367273945,53.93843 0.367273945,54.104206 0.21227209,53.93843 C0.21227209,53.93843 0.21227209,53.93843 0.0572702347,53.93843 C0.5222758,53.1095503 0.987281365,52.4464466 1.45228693,51.6175669 C3.93231661,47.1416167 6.56734815,42.6656664 9.04737783,38.1897162 C11.6824094,33.382214 14.4724428,28.5747119 17.1074743,23.7672098 C19.587504,19.2912595 22.0675336,14.8153093 24.5475633,10.505135 C26.4075856,7.18961627 28.2676078,4.0398735 29.9726283,0.724354793 C30.282632,0.724354793 30.282632,0.558578858 30.4376338,0.558578858 C30.4376338,0.890130729 30.4376338,1.2216826 30.4376338,1.55323447 Z" id="Shape" stroke="#FFFFFF"></path>
                        <path d="M60.5079937,53.93843 L60.5079937,53.93843 L60.5079937,53.93843 C60.5079937,53.93843 60.5079937,53.93843 60.5079937,53.93843 C58.1829659,55.5961894 55.7029362,57.0881728 53.3779084,58.5801562 C45.7828175,63.3876583 38.3427284,68.0293845 30.7476375,72.8368866 C30.5926357,72.8368866 30.5926357,73.0026626 30.4376338,73.0026626 C30.282632,73.0026626 30.282632,72.8368866 30.282632,72.8368866 C30.282632,72.6711107 30.282632,72.5053348 30.282632,72.3395588 C30.282632,61.564123 30.282632,50.7886873 30.282632,40.0132515 C30.282632,39.8474755 30.282632,39.6816996 30.282632,39.5159237 C30.282632,39.3501477 30.4376338,39.3501477 30.5926357,39.3501477 C31.2126431,39.6816996 31.8326505,40.0132515 32.6076598,40.3448033 C34.4676821,41.3394589 36.4827062,42.1683386 38.3427284,43.1629942 C40.0477488,43.9918739 41.5977674,44.8207536 43.3027878,45.4838573 C45.0078082,46.312737 46.5578267,47.1416167 48.2628471,47.9704964 C49.6578638,48.6336001 51.2078824,49.2967038 52.6028991,50.1255835 C53.9979158,50.7886873 55.5479343,51.451791 56.942951,52.2806707 C58.027964,52.7779985 59.112977,53.4411022 60.3529918,53.93843 C60.3529918,53.7726541 60.3529918,53.93843 60.5079937,53.93843 Z" id="Shape" stroke="#FFFCFC"></path>
                        <path d="M0.21227209,53.93843 C0.21227209,53.93843 0.367273945,53.93843 0.21227209,53.93843 C0.367273945,53.93843 0.367273945,53.93843 0.21227209,53.93843 C0.21227209,54.104206 0.21227209,54.104206 0.21227209,53.93843 C0.21227209,53.93843 0.21227209,53.93843 0.21227209,53.93843 C0.21227209,53.93843 0.21227209,53.93843 0.21227209,53.93843 Z" id="Shape" fill="#808080"></path>
                        <path d="M0.367273945,54.104206 C1.9172925,53.2753263 3.46731105,52.6122225 5.0173296,51.7833429 C7.03235371,50.7886873 9.04737783,49.7940316 11.0624019,48.799376 C12.6124205,47.9704964 14.162439,47.3073926 15.7124576,46.4785129 C17.8824836,45.3180814 20.2075114,44.3234258 22.3775374,43.1629942 C23.9275559,42.4998905 25.4775745,41.6710108 27.027593,41.0079071 C28.112606,40.5105793 29.197619,40.0132515 30.282632,39.3501477 C30.4376338,39.3501477 30.4376338,39.1843718 30.5926357,39.1843718 C30.5926357,39.1843718 30.5926357,39.1843718 30.5926357,39.3501477 C30.5926357,39.5159237 30.5926357,39.5159237 30.5926357,39.6816996 C30.5926357,50.6229113 30.5926357,61.564123 30.5926357,72.5053348 C30.5926357,72.6711107 30.5926357,72.8368866 30.5926357,73.0026626 C30.4376338,73.1684385 30.4376338,73.0026626 30.282632,73.0026626 C29.8176264,72.6711107 29.3526208,72.5053348 29.0426171,72.1737829 C19.587504,66.2058492 10.1323908,60.2379156 0.677277655,54.2699819 C0.5222758,54.104206 0.367273945,54.104206 0.367273945,54.104206 Z" id="Shape" stroke="#FFFFFF"></path>
                        <path d="M30.4376338,39.0185958 C30.4376338,26.4196248 30.4376338,13.6548777 30.4376338,1.05590666 C30.4376338,0.890130729 30.4376338,0.724354793 30.4376338,0.724354793 C40.3577525,18.2966039 50.2778713,35.8688531 60.19799,53.4411022 C60.3529918,53.6068782 60.5079937,53.7726541 60.5079937,53.93843 C59.8879863,53.6068782 59.2679789,53.2753263 58.4929696,52.9437744 C57.7179603,52.6122225 56.942951,52.1148947 56.1679418,51.7833429 C55.7029362,51.6175669 55.2379306,51.2860151 54.6179232,51.1202391 C53.8429139,50.7886873 52.9129028,50.2913594 52.1378935,49.9598076 C51.672888,49.7940316 51.2078824,49.4624798 50.7428768,49.2967038 C49.6578638,48.799376 48.5728509,48.3020482 47.4878379,47.8047204 C46.8678305,47.4731685 46.4028249,47.3073926 45.7828175,46.9758407 C45.0078082,46.6442889 44.2327989,46.1469611 43.4577896,45.8154092 C42.9927841,45.6496333 42.5277785,45.3180814 42.0627729,45.1523055 C40.97776,44.6549776 39.892747,44.1576498 38.807734,43.660322 C38.1877266,43.3287702 37.722721,43.1629942 37.1027136,42.8314424 C36.3277043,42.4998905 35.552695,42.0025627 34.7776858,41.6710108 C34.3126802,41.3394589 33.6926728,41.173683 33.2276672,40.8421311 C32.2976561,40.3448033 31.367645,39.8474755 30.4376338,39.3501477 C30.4376338,39.1843718 30.4376338,39.0185958 30.4376338,39.0185958 Z" id="Shape" stroke="#FFFFFF"></path>
                    </g>
                </g>
            </g>
            <g id="Group-Copy-15" filter="url(#filter-5)" transform="translate(36.991823, 25.423087)" fill-rule="nonzero">
                <g id="Etherium-Copy-2" opacity="0.423686594" transform="translate(0.392256, 0.427303)">
                    <g id="Group-Copy-2" transform="translate(0.554778, 0.593340)">
                        <path d="M24.0038099,83.1692216 C23.8816279,83.1692216 23.8816279,83.1692216 23.7594458,83.0385468 C21.3158053,79.3796517 18.9943468,75.8514315 16.5507062,72.1925365 C14.1070656,68.5336414 11.6634251,64.8747464 9.21978451,61.2158513 C6.89832597,57.6876311 4.45468541,54.1594109 2.13322688,50.5005158 C1.52231674,49.5857921 0.911406597,48.6710683 0.300496457,47.7563445 C0.300496457,47.6256697 0.178314429,47.6256697 0.178314429,47.4949949 C0.300496457,47.4949949 0.300496457,47.6256697 0.422678485,47.6256697 C3.72159324,49.7164669 7.14269003,51.8072641 10.4416048,53.8980612 C14.2292477,56.3808829 18.1390726,58.7330297 21.9267154,61.2158513 C22.5376256,61.6078758 23.2707177,61.9999003 23.8816279,62.3919247 C24.0038099,62.3919247 24.0038099,62.5225995 24.0038099,62.6532744 C24.0038099,62.7839492 24.0038099,62.914624 24.0038099,63.0452988 C24.0038099,69.57904 24.0038099,75.9821063 24.0038099,82.5158475 C24.0038099,82.6465223 24.0038099,82.9078719 24.0038099,83.1692216 Z" id="Shape" stroke="#FFFFFF"></path>
                        <path d="M0.178314429,42.5293516 C0.178314429,42.5293516 0.300496457,42.5293516 0.178314429,42.5293516 C0.300496457,42.5293516 0.300496457,42.5293516 0.178314429,42.5293516 C0.178314429,42.6600264 0.178314429,42.6600264 0.178314429,42.5293516 C0.178314429,42.5293516 0.178314429,42.5293516 0.178314429,42.5293516 C0.178314429,42.5293516 0.178314429,42.5293516 0.178314429,42.5293516 Z" id="Shape" fill="#808080"></path>
                        <path d="M47.5849413,47.4949949 C47.5849413,47.4949949 47.5849413,47.4949949 47.5849413,47.4949949 C47.5849413,47.6256697 47.5849413,47.6256697 47.4627593,47.7563445 C40.3762017,58.47168 33.289644,69.0563407 26.2030864,79.7716762 C25.4699942,80.9477496 24.7369021,81.9931482 24.0038099,83.1692216 C24.0038099,83.1692216 24.0038099,83.1692216 24.0038099,83.0385468 C24.0038099,82.9078719 24.0038099,82.9078719 24.0038099,82.7771971 C24.0038099,76.1127811 24.0038099,69.4483652 24.0038099,62.7839492 C24.0038099,62.6532744 24.0038099,62.5225995 24.0038099,62.3919247 C25.5921763,61.3465261 27.1805426,60.3011276 28.768909,59.3864038 C35.0001924,55.4661591 41.2314759,51.5459144 47.4627593,47.6256697 C47.4627593,47.4949949 47.5849413,47.4949949 47.5849413,47.4949949 Z" id="Shape" stroke="#FFFFFF"></path>
                    </g>
                </g>
                <g id="Etherium-Copy" transform="translate(1.404977, 1.774276)">
                    <g id="Group" transform="translate(-0.000000, -0.000000)">
                        <path d="M23.5268262,1.2005755 C23.5268262,10.6827002 23.5268262,20.2929618 23.5268262,29.7750865 C23.5268262,29.9032233 23.5268262,30.159497 23.5268262,30.2876338 C23.5268262,30.4157706 23.4070173,30.5439074 23.2872083,30.5439074 C22.4485455,30.9283179 21.7296916,31.3127283 20.8910288,31.6971388 C19.812748,32.2096861 18.6146583,32.7222334 17.5363775,33.3629175 C16.2184788,34.0036016 14.90058,34.6442857 13.5826813,35.2849698 C12.5044005,35.7975171 11.4261198,36.3100643 10.347839,36.8226116 C9.02994026,37.4632957 7.71204154,38.1039798 6.39414281,38.7446639 C5.31586204,39.2572112 4.23758126,39.7697585 3.03949151,40.4104426 C2.20082869,40.7948531 1.24235689,41.3074003 0.403694061,41.6918108 C0.283885085,41.6918108 0.283885085,41.8199476 0.16407611,41.6918108 C0.16407611,41.6918108 0.16407611,41.6918108 0.0442671355,41.6918108 C0.403694061,41.0511267 0.763120986,40.5385794 1.12254791,39.8978953 C3.03949151,36.4382012 5.07624409,32.978507 6.99318769,29.5188128 C9.02994026,25.8028451 11.1865018,22.0868773 13.2232544,18.3709095 C15.140198,14.9112153 17.0571416,11.4515211 18.9740852,8.11996381 C20.4117929,5.5572274 21.8495006,3.12262781 23.1673993,0.559891398 C23.4070173,0.559891398 23.4070173,0.431754578 23.5268262,0.431754578 C23.5268262,0.688028219 23.5268262,0.94430186 23.5268262,1.2005755 Z" id="Shape" stroke="#FFFFFF"></path>
                        <path d="M46.7697674,41.6918108 L46.7697674,41.6918108 L46.7697674,41.6918108 C46.7697674,41.6918108 46.7697674,41.6918108 46.7697674,41.6918108 C44.9726328,42.973179 43.0556892,44.1264104 41.2585545,45.2796418 C35.3879148,48.9956096 29.637084,52.5834406 23.7664442,56.2994083 C23.6466352,56.2994083 23.6466352,56.4275452 23.5268262,56.4275452 C23.4070173,56.4275452 23.4070173,56.2994083 23.4070173,56.2994083 C23.4070173,56.1712715 23.4070173,56.0431347 23.4070173,55.9149979 C23.4070173,47.5861046 23.4070173,39.2572112 23.4070173,30.9283179 C23.4070173,30.8001811 23.4070173,30.6720442 23.4070173,30.5439074 C23.4070173,30.4157706 23.5268262,30.4157706 23.6466352,30.4157706 C24.1258711,30.6720442 24.605107,30.9283179 25.2041519,31.1845915 C26.6418596,31.9534124 28.1993763,32.5940965 29.637084,33.3629175 C30.9549827,34.0036016 32.1530724,34.6442857 33.4709712,35.156833 C34.7888699,35.7975171 35.9869596,36.4382012 37.3048584,37.0788853 C38.3831391,37.5914325 39.5812289,38.1039798 40.6595097,38.7446639 C41.7377904,39.2572112 42.9358802,39.7697585 44.014161,40.4104426 C44.8528238,40.7948531 45.6914866,41.3074003 46.6499584,41.6918108 C46.6499584,41.563674 46.6499584,41.6918108 46.7697674,41.6918108 Z" id="Shape" stroke="#FFFCFC"></path>
                        <path d="M0.16407611,41.6918108 C0.16407611,41.6918108 0.283885085,41.6918108 0.16407611,41.6918108 C0.283885085,41.6918108 0.283885085,41.6918108 0.16407611,41.6918108 C0.16407611,41.8199476 0.16407611,41.8199476 0.16407611,41.6918108 C0.16407611,41.6918108 0.16407611,41.6918108 0.16407611,41.6918108 C0.16407611,41.6918108 0.16407611,41.6918108 0.16407611,41.6918108 Z" id="Shape" fill="#808080"></path>
                        <path d="M0.283885085,41.8199476 C1.48197484,41.1792635 2.68006459,40.6667162 3.87815434,40.0260321 C5.43567101,39.2572112 6.99318769,38.4883903 8.55070436,37.7195694 C9.74879411,37.0788853 10.9468839,36.566338 12.1449736,35.9256539 C13.8222993,35.0286961 15.6194339,34.2598752 17.2967595,33.3629175 C18.4948493,32.8503702 19.692939,32.2096861 20.8910288,31.6971388 C21.7296916,31.3127283 22.5683544,30.9283179 23.4070173,30.4157706 C23.5268262,30.4157706 23.5268262,30.2876338 23.6466352,30.2876338 C23.6466352,30.2876338 23.6466352,30.2876338 23.6466352,30.4157706 C23.6466352,30.5439074 23.6466352,30.5439074 23.6466352,30.6720442 C23.6466352,39.1290744 23.6466352,47.5861046 23.6466352,56.0431347 C23.6466352,56.1712715 23.6466352,56.2994083 23.6466352,56.4275452 C23.5268262,56.555682 23.5268262,56.4275452 23.4070173,56.4275452 C23.0475903,56.1712715 22.6881634,56.0431347 22.4485455,55.7868611 C15.140198,51.1739355 7.83185051,46.56101 0.523503036,41.9480844 C0.403694061,41.8199476 0.283885085,41.8199476 0.283885085,41.8199476 Z" id="Shape" stroke="#FFFFFF"></path>
                        <path d="M23.5268262,30.159497 C23.5268262,20.4210986 23.5268262,10.5545634 23.5268262,0.816165039 C23.5268262,0.688028219 23.5268262,0.559891398 23.5268262,0.559891398 C31.1946006,14.1423944 38.862375,27.7248974 46.5301494,41.3074003 C46.6499584,41.4355372 46.7697674,41.563674 46.7697674,41.6918108 C46.2905315,41.4355372 45.8112956,41.1792635 45.2122507,40.9229899 C44.6132058,40.6667162 44.014161,40.2823058 43.4151161,40.0260321 C43.0556892,39.8978953 42.6962622,39.6416217 42.2170263,39.5134849 C41.6179815,39.2572112 40.8991276,38.8728008 40.3000827,38.6165271 C39.9406558,38.4883903 39.5812289,38.2321166 39.221802,38.1039798 C38.3831391,37.7195694 37.5444763,37.3351589 36.7058135,36.9507484 C36.2265776,36.6944748 35.8671507,36.566338 35.3879148,36.3100643 C34.7888699,36.0537907 34.189825,35.6693802 33.5907801,35.4131066 C33.2313532,35.2849698 32.8719263,35.0286961 32.5124994,34.9005593 C31.6738365,34.5161489 30.8351737,34.1317384 29.9965109,33.7473279 C29.517275,33.4910543 29.1578481,33.3629175 28.6786122,33.1066438 C28.0795673,32.8503702 27.4805224,32.4659597 26.8814775,32.2096861 C26.5220506,31.9534124 26.0428147,31.8252756 25.6833878,31.569002 C24.9645339,31.1845915 24.2456801,30.8001811 23.5268262,30.4157706 C23.5268262,30.2876338 23.5268262,30.159497 23.5268262,30.159497 Z" id="Shape" stroke="#FFFFFF"></path>
                    </g>
                </g>
            </g>
            <g id="Group-Copy-16" filter="url(#filter-6)" transform="translate(93.693207, 76.086576)" fill-rule="nonzero">
                <g id="Etherium-Copy-2" opacity="0.423686594" transform="translate(0.292944, 0.319118)">
                    <g id="Group-Copy-2" transform="translate(0.414318, 0.443117)">
                        <path d="M17.9264878,62.112308 C17.83524,62.112308 17.83524,62.112308 17.7439922,62.0147177 C15.9190364,59.2821874 14.1853283,56.6472475 12.3603725,53.9147172 C10.5354167,51.1821869 8.71046087,48.4496567 6.88550505,45.7171264 C5.15179702,43.0821865 3.32684119,40.4472466 1.59313316,37.7147163 C1.13689421,37.0315837 0.68065525,36.3484511 0.224416294,35.6653186 C0.224416294,35.5677282 0.133168503,35.5677282 0.133168503,35.4701378 C0.224416294,35.4701378 0.224416294,35.5677282 0.315664085,35.5677282 C2.77935445,37.1291741 5.3342926,38.6906199 7.79798296,40.2520658 C10.6266645,42.1062828 13.5465938,43.8629094 16.3752753,45.7171264 C16.8315143,46.0098975 17.379001,46.3026686 17.83524,46.5954397 C17.9264878,46.5954397 17.9264878,46.69303 17.9264878,46.7906204 C17.9264878,46.8882108 17.9264878,46.9858011 17.9264878,47.0833915 C17.9264878,51.9629099 17.9264878,56.7448379 17.9264878,61.6243562 C17.9264878,61.7219466 17.9264878,61.9171273 17.9264878,62.112308 Z" id="Shape" stroke="#FFFFFF"></path>
                        <path d="M0.133168503,31.7617039 C0.133168503,31.7617039 0.224416294,31.7617039 0.133168503,31.7617039 C0.224416294,31.7617039 0.224416294,31.7617039 0.133168503,31.7617039 C0.133168503,31.8592943 0.133168503,31.8592943 0.133168503,31.7617039 C0.133168503,31.7617039 0.133168503,31.7617039 0.133168503,31.7617039 C0.133168503,31.7617039 0.133168503,31.7617039 0.133168503,31.7617039 Z" id="Shape" fill="#808080"></path>
                        <path d="M35.5373115,35.4701378 C35.5373115,35.4701378 35.5373115,35.4701378 35.5373115,35.4701378 C35.5373115,35.5677282 35.5373115,35.5677282 35.4460637,35.6653186 C30.1536918,43.6677287 24.8613199,51.5725484 19.568948,59.5749585 C19.0214613,60.4532718 18.4739745,61.2339947 17.9264878,62.112308 C17.9264878,62.112308 17.9264878,62.112308 17.9264878,62.0147177 C17.9264878,61.9171273 17.9264878,61.9171273 17.9264878,61.8195369 C17.9264878,56.8424282 17.9264878,51.8653195 17.9264878,46.8882108 C17.9264878,46.7906204 17.9264878,46.69303 17.9264878,46.5954397 C19.1127091,45.8147167 20.2989304,45.0339938 21.4851516,44.3508612 C26.138789,41.4231502 30.7924263,38.4954392 35.4460637,35.5677282 C35.4460637,35.4701378 35.5373115,35.4701378 35.5373115,35.4701378 Z" id="Shape" stroke="#FFFFFF"></path>
                    </g>
                </g>
                <g id="Etherium-Copy" transform="translate(1.049263, 1.325062)">
                    <g id="Group" transform="translate(-0.000000, -0.000000)">
                        <path d="M17.5702676,0.896611919 C17.5702676,7.97803748 17.5702676,15.155158 17.5702676,22.2365835 C17.5702676,22.3322785 17.5702676,22.5236684 17.5702676,22.6193633 C17.5702676,22.7150582 17.480792,22.8107532 17.3913165,22.8107532 C16.7649876,23.097838 16.2281343,23.3849228 15.6018055,23.6720076 C14.7965255,24.0547874 13.90177,24.4375672 13.09649,24.9160419 C12.112259,25.3945166 11.1280279,25.8729913 10.1437968,26.351466 C9.33851686,26.7342457 8.5332369,27.1170255 7.72795693,27.4998052 C6.74372587,27.9782799 5.7594948,28.4567546 4.77526374,28.9352293 C3.96998377,29.3180091 3.16470381,29.7007889 2.2699483,30.1792636 C1.64361944,30.4663484 0.927815027,30.8491281 0.301486167,31.136213 C0.212010616,31.136213 0.212010616,31.2319079 0.122535064,31.136213 C0.122535064,31.136213 0.122535064,31.136213 0.0330595129,31.136213 C0.301486167,30.6577383 0.569912821,30.2749585 0.838339476,29.7964838 C2.2699483,27.2127204 3.79103267,24.628957 5.22264149,22.0451937 C6.74372587,19.2700404 8.35428579,16.4948871 9.87537017,13.7197339 C11.306979,11.1359705 12.7385878,8.55220712 14.1701966,6.06413868 C15.2439033,4.15023988 16.3176099,2.33203602 17.3018409,0.418137219 C17.480792,0.418137219 17.480792,0.322442279 17.5702676,0.322442279 C17.5702676,0.513832159 17.5702676,0.705222039 17.5702676,0.896611919 Z" id="Shape" stroke="#FFFFFF"></path>
                        <path d="M34.9285246,31.136213 L34.9285246,31.136213 L34.9285246,31.136213 C34.9285246,31.136213 34.9285246,31.136213 34.9285246,31.136213 C33.5863913,32.0931624 32.1547825,32.9544168 30.8126492,33.8156713 C26.4283472,36.5908245 22.1335207,39.2702829 17.7492187,42.0454361 C17.6597431,42.0454361 17.6597431,42.1411311 17.5702676,42.1411311 C17.480792,42.1411311 17.480792,42.0454361 17.480792,42.0454361 C17.480792,41.9497412 17.480792,41.8540462 17.480792,41.7583513 C17.480792,35.5381802 17.480792,29.3180091 17.480792,23.097838 C17.480792,23.0021431 17.480792,22.9064481 17.480792,22.8107532 C17.480792,22.7150582 17.5702676,22.7150582 17.6597431,22.7150582 C18.0176453,22.9064481 18.3755476,23.097838 18.8229253,23.2892279 C19.8966319,23.8633975 21.0598141,24.3418722 22.1335207,24.9160419 C23.1177518,25.3945166 24.0125073,25.8729913 24.9967384,26.255771 C25.9809694,26.7342457 26.8757249,27.2127204 27.859956,27.6911951 C28.665236,28.0739749 29.5599915,28.4567546 30.3652714,28.9352293 C31.1705514,29.3180091 32.0653069,29.7007889 32.8705869,30.1792636 C33.4969157,30.4663484 34.1232446,30.8491281 34.839049,31.136213 C34.839049,31.040518 34.839049,31.136213 34.9285246,31.136213 Z" id="Shape" stroke="#FFFCFC"></path>
                        <path d="M0.122535064,31.136213 C0.122535064,31.136213 0.212010616,31.136213 0.122535064,31.136213 C0.212010616,31.136213 0.212010616,31.136213 0.122535064,31.136213 C0.122535064,31.2319079 0.122535064,31.2319079 0.122535064,31.136213 C0.122535064,31.136213 0.122535064,31.136213 0.122535064,31.136213 C0.122535064,31.136213 0.122535064,31.136213 0.122535064,31.136213 Z" id="Shape" fill="#808080"></path>
                        <path d="M0.212010616,31.2319079 C1.10676613,30.7534332 2.00152164,30.3706534 2.89627716,29.8921787 C4.05945933,29.3180091 5.22264149,28.7438395 6.38582366,28.1696698 C7.28057918,27.6911951 8.17533469,27.3084154 9.0700902,26.8299407 C10.3227479,26.1600761 11.6648812,25.5859064 12.9175389,24.9160419 C13.8122944,24.5332621 14.7070499,24.0547874 15.6018055,23.6720076 C16.2281343,23.3849228 16.8544632,23.097838 17.480792,22.7150582 C17.5702676,22.7150582 17.5702676,22.6193633 17.6597431,22.6193633 C17.6597431,22.6193633 17.6597431,22.6193633 17.6597431,22.7150582 C17.6597431,22.8107532 17.6597431,22.8107532 17.6597431,22.9064481 C17.6597431,29.2223142 17.6597431,35.5381802 17.6597431,41.8540462 C17.6597431,41.9497412 17.6597431,42.0454361 17.6597431,42.1411311 C17.5702676,42.236826 17.5702676,42.1411311 17.480792,42.1411311 C17.2123654,41.9497412 16.9439387,41.8540462 16.7649876,41.6626564 C11.306979,38.2176385 5.84897035,34.7726207 0.390961719,31.3276028 C0.301486167,31.2319079 0.212010616,31.2319079 0.212010616,31.2319079 Z" id="Shape" stroke="#FFFFFF"></path>
                        <path d="M17.5702676,22.5236684 C17.5702676,15.2508529 17.5702676,7.88234254 17.5702676,0.609527099 C17.5702676,0.513832159 17.5702676,0.418137219 17.5702676,0.418137219 C23.2967029,10.5618009 29.0231382,20.7054645 34.7495735,30.8491281 C34.839049,30.9448231 34.9285246,31.040518 34.9285246,31.136213 C34.5706224,30.9448231 34.2127201,30.7534332 33.7653424,30.5620433 C33.3179646,30.3706534 32.8705869,30.0835686 32.4232091,29.8921787 C32.1547825,29.7964838 31.8863558,29.6050939 31.5284536,29.509399 C31.0810758,29.3180091 30.5442225,29.0309243 30.0968448,28.8395344 C29.8284181,28.7438395 29.5599915,28.5524496 29.2915648,28.4567546 C28.665236,28.1696698 28.0389071,27.882585 27.4125782,27.5955002 C27.054676,27.4041103 26.7862494,27.3084154 26.4283472,27.1170255 C25.9809694,26.9256356 25.5335917,26.6385508 25.0862139,26.4471609 C24.8177873,26.351466 24.5493606,26.1600761 24.2809339,26.0643811 C23.6546051,25.7772963 23.0282762,25.4902115 22.4019474,25.2031267 C22.0440452,25.0117368 21.7756185,24.9160419 21.4177163,24.724652 C20.9703385,24.5332621 20.5229608,24.2461773 20.075583,24.0547874 C19.8071564,23.8633975 19.4492542,23.7677026 19.1808275,23.5763127 C18.6439742,23.2892279 18.1071209,23.0021431 17.5702676,22.7150582 C17.5702676,22.6193633 17.5702676,22.5236684 17.5702676,22.5236684 Z" id="Shape" stroke="#FFFFFF"></path>
                    </g>
                </g>
            </g>
            <g id="Group-Copy-17" filter="url(#filter-7)" transform="translate(205.660497, 63.501617)" fill-rule="nonzero">
                <g id="Etherium-Copy-2" opacity="0.423686594" transform="translate(0.223748, 0.243739)">
                    <g id="Group-Copy-2" transform="translate(0.316452, 0.338449)">
                        <path d="M13.6920771,47.4407772 C13.622383,47.4407772 13.622383,47.4407772 13.5526888,47.3662386 C12.1588053,45.2791586 10.8346159,43.2666171 9.4407324,41.179537 C8.04684888,39.0924569 6.65296536,37.0053769 5.25908184,34.9182968 C3.93489249,32.9057553 2.54100897,30.8932138 1.21681963,28.8061337 C0.868348745,28.2843637 0.519877865,27.7625937 0.171406984,27.2408237 C0.171406984,27.1662851 0.101712808,27.1662851 0.101712808,27.0917465 C0.171406984,27.0917465 0.171406984,27.1662851 0.24110116,27.1662851 C2.12284391,28.3589023 4.07428084,29.5515195 5.9560236,30.7441367 C8.11654306,32.1603696 10.3467567,33.5020639 12.5072761,34.9182968 C12.855747,35.1419125 13.2739121,35.3655282 13.622383,35.589144 C13.6920771,35.589144 13.6920771,35.6636825 13.6920771,35.7382211 C13.6920771,35.8127597 13.6920771,35.8872983 13.6920771,35.9618368 C13.6920771,39.6887655 13.6920771,43.3411557 13.6920771,47.0680843 C13.6920771,47.1426229 13.6920771,47.2917001 13.6920771,47.4407772 Z" id="Shape" stroke="#FFFFFF"></path>
                        <path d="M0.101712808,24.2592807 C0.101712808,24.2592807 0.171406984,24.2592807 0.101712808,24.2592807 C0.171406984,24.2592807 0.171406984,24.2592807 0.101712808,24.2592807 C0.101712808,24.3338193 0.101712808,24.3338193 0.101712808,24.2592807 C0.101712808,24.2592807 0.101712808,24.2592807 0.101712808,24.2592807 C0.101712808,24.2592807 0.101712808,24.2592807 0.101712808,24.2592807 Z" id="Shape" fill="#808080"></path>
                        <path d="M27.1430531,27.0917465 C27.1430531,27.0917465 27.1430531,27.0917465 27.1430531,27.0917465 C27.1430531,27.1662851 27.1430531,27.1662851 27.0733589,27.2408237 C23.0310967,33.3529868 18.9888345,39.3906112 14.9465723,45.5027743 C14.5284073,46.1736215 14.1102422,46.7699301 13.6920771,47.4407772 C13.6920771,47.4407772 13.6920771,47.4407772 13.6920771,47.3662386 C13.6920771,47.2917001 13.6920771,47.2917001 13.6920771,47.2171615 C13.6920771,43.4156942 13.6920771,39.614227 13.6920771,35.8127597 C13.6920771,35.7382211 13.6920771,35.6636825 13.6920771,35.589144 C14.5981014,34.9928354 15.5041257,34.3965268 16.41015,33.8747568 C19.964553,31.6385996 23.518956,29.4024423 27.0733589,27.1662851 C27.0733589,27.0917465 27.1430531,27.0917465 27.1430531,27.0917465 Z" id="Shape" stroke="#FFFFFF"></path>
                    </g>
                </g>
                <g id="Etherium-Copy" transform="translate(0.801417, 1.012070)">
                    <g id="Group" transform="translate(-0.000000, -0.000000)">
                        <path d="M13.4199996,0.684823469 C13.4199996,6.09354749 13.4199996,11.5753624 13.4199996,16.9840864 C13.4199996,17.0571773 13.4199996,17.203359 13.4199996,17.2764499 C13.4199996,17.3495407 13.3516591,17.4226316 13.2833185,17.4226316 C12.8049346,17.6419042 12.3948913,17.8611768 11.9165074,18.0804494 C11.3014424,18.3728128 10.6180368,18.6651763 10.0029718,19.0306306 C9.25122567,19.3960849 8.49947955,19.7615393 7.74773342,20.1269936 C7.13266842,20.4193571 6.51760341,20.7117205 5.9025384,21.004084 C5.15079228,21.3695383 4.39904615,21.7349926 3.64730003,22.100447 C3.03223502,22.3928104 2.41717001,22.6851739 1.73376445,23.0506282 C1.25538055,23.2699008 0.7086561,23.5622643 0.230272204,23.7815369 C0.161931648,23.7815369 0.161931648,23.8546277 0.0935910912,23.7815369 C0.0935910912,23.7815369 0.0935910912,23.7815369 0.0252505347,23.7815369 C0.230272204,23.4160825 0.435293874,23.1237191 0.640315544,22.7582647 C1.73376445,20.7848114 2.89555391,18.811358 3.98900281,16.8379047 C5.15079228,14.7182696 6.38092229,12.5986345 7.54271176,10.4789994 C8.63616066,8.50554604 9.72960956,6.53209268 10.8230585,4.63173019 C11.6431451,3.16991288 12.4632318,1.78118645 13.2149779,0.319369144 C13.3516591,0.319369144 13.3516591,0.246278279 13.4199996,0.246278279 C13.4199996,0.392460009 13.4199996,0.538641739 13.4199996,0.684823469 Z" id="Shape" stroke="#FFFFFF"></path>
                        <path d="M26.6780676,23.7815369 L26.6780676,23.7815369 L26.6780676,23.7815369 C26.6780676,23.7815369 26.6780676,23.7815369 26.6780676,23.7815369 C25.6529592,24.5124455 24.5595103,25.1702633 23.534402,25.8280811 C20.1857147,27.9477162 16.905368,29.9942604 13.5566807,32.1138955 C13.4883402,32.1138955 13.4883402,32.1869863 13.4199996,32.1869863 C13.3516591,32.1869863 13.3516591,32.1138955 13.3516591,32.1138955 C13.3516591,32.0408046 13.3516591,31.9677137 13.3516591,31.8946229 C13.3516591,27.1437166 13.3516591,22.3928104 13.3516591,17.6419042 C13.3516591,17.5688133 13.3516591,17.4957224 13.3516591,17.4226316 C13.3516591,17.3495407 13.4199996,17.3495407 13.4883402,17.3495407 C13.7617024,17.4957224 14.0350646,17.6419042 14.3767674,17.7880859 C15.1968541,18.2266311 16.0852813,18.5920854 16.905368,19.0306306 C17.6571141,19.3960849 18.3405197,19.7615393 19.0922658,20.0539027 C19.8440119,20.4193571 20.5274175,20.7848114 21.2791636,21.1502657 C21.8942286,21.4426292 22.5776342,21.7349926 23.1926992,22.100447 C23.8077642,22.3928104 24.4911698,22.6851739 25.1062348,23.0506282 C25.5846187,23.2699008 26.0630026,23.5622643 26.609727,23.7815369 C26.609727,23.708446 26.609727,23.7815369 26.6780676,23.7815369 Z" id="Shape" stroke="#FFFCFC"></path>
                        <path d="M0.0935910912,23.7815369 C0.0935910912,23.7815369 0.161931648,23.7815369 0.0935910912,23.7815369 C0.161931648,23.7815369 0.161931648,23.7815369 0.0935910912,23.7815369 C0.0935910912,23.8546277 0.0935910912,23.8546277 0.0935910912,23.7815369 C0.0935910912,23.7815369 0.0935910912,23.7815369 0.0935910912,23.7815369 C0.0935910912,23.7815369 0.0935910912,23.7815369 0.0935910912,23.7815369 Z" id="Shape" fill="#808080"></path>
                        <path d="M0.161931648,23.8546277 C0.845337213,23.4891734 1.52874278,23.1968099 2.21214834,22.8313556 C3.10057558,22.3928104 3.98900281,21.9542652 4.87743005,21.51572 C5.56083562,21.1502657 6.24424118,20.8579022 6.92764675,20.4924479 C7.88441454,19.9808119 8.90952289,19.5422667 9.86629068,19.0306306 C10.5496962,18.7382672 11.2331018,18.3728128 11.9165074,18.0804494 C12.3948913,17.8611768 12.8732752,17.6419042 13.3516591,17.3495407 C13.4199996,17.3495407 13.4199996,17.2764499 13.4883402,17.2764499 C13.4883402,17.2764499 13.4883402,17.2764499 13.4883402,17.3495407 C13.4883402,17.4226316 13.4883402,17.4226316 13.4883402,17.4957224 C13.4883402,22.3197195 13.4883402,27.1437166 13.4883402,31.9677137 C13.4883402,32.0408046 13.4883402,32.1138955 13.4883402,32.1869863 C13.4199996,32.2600772 13.4199996,32.1869863 13.3516591,32.1869863 C13.1466374,32.0408046 12.9416157,31.9677137 12.8049346,31.821532 C8.63616066,29.1902609 4.46738671,26.5589897 0.298612761,23.9277186 C0.230272204,23.8546277 0.161931648,23.8546277 0.161931648,23.8546277 Z" id="Shape" stroke="#FFFFFF"></path>
                        <path d="M13.4199996,17.203359 C13.4199996,11.6484532 13.4199996,6.02045662 13.4199996,0.465550874 C13.4199996,0.392460009 13.4199996,0.319369144 13.4199996,0.319369144 C17.7937952,8.06700085 22.1675909,15.8146326 26.5413865,23.5622643 C26.609727,23.6353551 26.6780676,23.708446 26.6780676,23.7815369 C26.4047054,23.6353551 26.1313431,23.4891734 25.7896404,23.3429917 C25.4479376,23.1968099 25.1062348,22.9775373 24.764532,22.8313556 C24.5595103,22.7582647 24.3544887,22.612083 24.0811264,22.5389921 C23.7394237,22.3928104 23.3293803,22.1735378 22.9876775,22.0273561 C22.7826559,21.9542652 22.5776342,21.8080835 22.3726125,21.7349926 C21.8942286,21.51572 21.4158447,21.2964474 20.9374608,21.0771748 C20.6640986,20.9309931 20.4590769,20.8579022 20.1857147,20.7117205 C19.8440119,20.5655388 19.5023092,20.3462662 19.1606064,20.2000845 C18.9555847,20.1269936 18.750563,19.9808119 18.5455414,19.907721 C18.0671575,19.6884484 17.5887736,19.4691758 17.1103897,19.2499032 C16.8370274,19.1037215 16.6320058,19.0306306 16.3586436,18.8844489 C16.0169408,18.7382672 15.675238,18.5189946 15.3335352,18.3728128 C15.1285135,18.2266311 14.8551513,18.1535402 14.6501296,18.0073585 C14.2400863,17.7880859 13.830043,17.5688133 13.4199996,17.3495407 C13.4199996,17.2764499 13.4199996,17.203359 13.4199996,17.203359 Z" id="Shape" stroke="#FFFFFF"></path>
                    </g>
                </g>
            </g>
        </g>
    </g>
</svg>